<?xml version="1.0" encoding="utf-8"?>
<!-- Generator: Adobe Illustrator 17.0.0, SVG Export Plug-In . SVG Version: 6.00 Build 0)  -->
<!DOCTYPE svg PUBLIC "-//W3C//DTD SVG 1.1//EN" "http://www.w3.org/Graphics/SVG/1.1/DTD/svg11.dtd">
<svg version="1.1" id="Layer_1" xmlns="http://www.w3.org/2000/svg" xmlns:xlink="http://www.w3.org/1999/xlink" x="0px" y="0px"
	 width="131px" height="46.787px" viewBox="17.53 6.261 131 46.787" enable-background="new 17.53 6.261 131 46.787"
	 xml:space="preserve">
<g>
	<g>
		<path d="M45.234,18.228c1.25-4.658,1.34-11.488-9.648-11.488c-6.983,0-10.599,3.696-11.5,9.561l-0.843,5.671h-4.118l-0.905,4.886
			h4.125L17.53,52.576c0,0,2.274,0.645,4.754,0.427c3.603-0.316,4.82-1.794,5.222-3.813c0.572-2.879,4.134-22.332,4.134-22.332
			h4.799l0.826-4.886H32.53l1.242-7.759c0.23-1.269,1.021-2.102,2.363-2.024c1.105,0.064,1.867,0.867,1.67,2.024l-0.727,4.014
			L45.234,18.228L45.234,18.228z"/>
		<path d="M75.54,26.851h4.052l0.858-4.86h-4.087l1.441-8.27c0,0-2.128-0.645-4.609-0.427c-3.602,0.316-4.635,1.794-5.036,3.813
			c-0.115,0.581-0.609,3.301-0.895,4.883h-0.017h-3.502l-0.876,4.86h3.485c0,0-1.468,8.204-2.168,11.869
			c-0.815,4.281,0.549,5.679,3.11,6.267c4.316,0.99,8.265-0.521,8.265-0.521l0.859-4.789c0,0-0.819,0.185-1.473,0.177
			c-1.587-0.018-1.612-0.801-1.363-2.259C73.788,36.402,75.54,26.851,75.54,26.851z"/>
		<g>
			<path d="M91.013,21.537c-8.245,0-11.404,5.625-12.224,12.03c-0.981,7.658,3.687,11.14,9.157,11.672
				c3.496,0.34,7.169-0.104,9.474-0.846l0.93-5.117c0,0-2.883,0.587-5.834,0.587c-2.341,0-5.313-0.312-4.501-4.445
				c0.327,0,12.032,0,12.032,0c0.468-1.634,0.625-2.132,0.846-4.345C101.377,26.238,98.926,21.537,91.013,21.537z M93.258,28.427
				l-0.528,3.043h-3.981l0.528-3.043c0.168-1.21,0.678-2.023,2.18-2.023C92.71,26.404,93.441,27.317,93.258,28.427z"/>
		</g>
		<g>
			<path d="M59.932,39.835c-1.322-0.108-1.401-0.877-1.215-2.079l2.814-15.77h-7.303l-1.68,2.61c0,0-0.092,0-0.114,0
				c-0.906-1.337-3.203-3.133-6.135-3.133c-5.065,0-8.841,4.209-10.129,11.353c-1.511,8.368,1.094,12.529,6.926,12.529
				c2.492,0,4.975-1.494,6.178-3.23h0.119c0.413,1.706,1.819,2.561,3.168,2.886c4.046,0.976,7.523-0.582,7.523-0.582l0.838-4.639
				C60.919,39.778,60.343,39.867,59.932,39.835z M50.912,29.337l-1.56,8.648c-0.178,0.983-1.131,1.599-2.135,1.47l-0.255-0.033
				c-1.003-0.129-1.693-1.032-1.489-2.105l1.56-8.648c0.178-0.983,1.125-1.57,2.098-1.475C50.606,27.34,51.089,28.354,50.912,29.337
				z"/>
		</g>
	</g>
	<path fill="#E11B22" d="M117.583,26.425c0,5.568,4.618,10.083,10.315,10.083c5.698,0,10.316-4.515,10.316-10.083
		c0-5.569-4.618-10.082-10.316-10.082C122.201,16.343,117.583,20.857,117.583,26.425z M107.267,26.425
		c0-11.137,9.237-20.164,20.631-20.164c11.395,0,20.631,9.028,20.631,20.164s-9.237,20.165-20.631,20.165
		C116.504,46.59,107.267,37.563,107.267,26.425z"/>
</g>
</svg>
