<?xml version="1.0" encoding="utf-8"?>
<!-- Generator: Adobe Illustrator 23.0.5, SVG Export Plug-In . SVG Version: 6.00 Build 0)  -->
<svg version="1.1" id="Layer_1" xmlns="http://www.w3.org/2000/svg" xmlns:xlink="http://www.w3.org/1999/xlink" x="0px" y="0px"
	 width="22.3px" height="15.6px" viewBox="0 0 22.3 15.6" style="enable-background:new 0 0 22.3 15.6;" xml:space="preserve">
<path style="fill:#FFFFFF;" d="M19.1647,3.7932c-0.2233-0.7444-0.7444-1.2654-1.4887-1.4887C16.4105,2.0068,11.2,2.0068,11.2,2.0068
	s-5.2105,0-6.4759,0.3722C4.0541,2.6022,3.4586,3.1233,3.2353,3.8677C2.8631,5.1331,2.8631,7.8128,2.8631,7.8128
	s0,2.6797,0.3722,4.0196c0.2233,0.7444,0.7444,1.2654,1.4887,1.4887C6.0639,13.6932,11.2,13.6932,11.2,13.6932
	s5.2105,0,6.4759-0.3722c0.7444-0.2233,1.2654-0.7444,1.4887-1.4887c0.3722-1.2654,0.3722-4.0196,0.3722-4.0196
	S19.4624,5.1331,19.1647,3.7932z M9.488,10.3436V5.3564l4.3173,2.4564L9.488,10.3436z"/>
</svg>
